<svg xmlns="http://www.w3.org/2000/svg" xmlns:xlink="http://www.w3.org/1999/xlink" id="Layer_1" x="0px" y="0px" viewBox="0 0 200 114" style="enable-background:new 0 0 200 114;" xml:space="preserve"><style type="text/css">	.st0{fill:#0083A0;}	.st1{fill:#FFCD1C;}</style><g>	<path class="st0" d="M104.48,35.87c-1.84,0.14-3.74,0.31-5.68,0.55c0.33-1.12,0.69-2.26,1.09-3.41c0.16-0.46-0.09-0.97-0.56-1.1  l-5.2-0.24c-0.44-0.12-0.9,0.12-1.03,0.56c-0.3,1.02-0.82,2.9-1.36,5.4c-4.04,0.91-8.08,2.26-11.89,4.33  c-0.44,0.24-0.58,0.82-0.29,1.23c0.82,1.19,2.39,3.02,3.15,4.11c0.25,0.36,0.72,0.46,1.1,0.25c1.06-0.58,3.35-1.66,6.67-2.75  c-1.18,8.74-1.49,20.46,2.46,31.11c0.17,0.46,0.73,0.64,1.17,0.42l4.93-2.46c0.39-0.19,0.57-0.64,0.42-1.05  c-1.1-2.9-4.92-14.51-2.19-29.84c2.2-0.47,4.62-0.87,7.24-1.14c0.42-0.04,0.75-0.39,0.76-0.81l0.12-4.29  C105.4,36.24,104.98,35.83,104.48,35.87"></path>	<path class="st0" d="M65.36,48.63c3.01-11.96-8.47-18.51-17.06-9.3c0.03-0.97,0.07-1.94,0.14-2.94c0.04-0.51-0.36-0.95-0.87-0.95  h-5.53c-0.48,0-0.87,0.37-0.88,0.85c-0.1,4.89,0.02,29.83,12.03,45.01c0.31,0.4,0.91,0.44,1.29,0.1l4.27-3.82  c0.34-0.3,0.4-0.8,0.13-1.16c-1.04-1.43-3.62-5.27-5.98-11.11C55.52,63.75,62.85,58.6,65.36,48.63 M57.86,49.45  c-1.21,4.83-4.53,7.55-6.2,8.65c-0.49,0.32-1.16,0.08-1.32-0.48c-1.15-4-1.65-8.9-1.85-11.32c-0.08-1.04,0.33-2.06,1.14-2.72  C54.09,39.99,59.36,43.46,57.86,49.45"></path>	<path class="st0" d="M87.84,64.93c-0.22-0.41-0.53-0.57-1.09-0.65c-0.87-0.13-3.25-0.39-3.25-0.39c-0.36,0-0.68,0.14-0.92,0.4  c-0.75,0.82-3.4,3.48-6.3,3.48h-0.01c-1.4,0-2.69-0.65-3.83-1.91c-0.1-0.11-0.13-0.25-0.1-0.39c0.03-0.13,0.12-0.24,0.24-0.29  c3.34-1.44,9.25-6.21,7.72-14c-0.35-1.79-1.48-3.27-3.09-4.07c-1.53-0.75-3.28-0.75-4.79,0c-3.01,1.49-6.74,4.73-7.44,11.69  c-0.63,6.26,2.67,11.94,8.02,13.81c1.16,0.41,2.34,0.61,3.5,0.61c4.2,0,8.6-2.78,11.31-7C88.04,65.84,88.06,65.34,87.84,64.93   M71.96,59.29c-0.34-0.03-0.63-0.25-0.75-0.58c-0.21-0.58-0.41-1.74,0.08-3.69c0.48-1.92,2.73-5.27,4.46-3.61  c1.73,1.65,1.22,4.63-0.56,6.35C73.73,59.16,72.58,59.34,71.96,59.29"></path>	<path class="st0" d="M109.94,52.61l-4.8-0.7c-0.45-0.07-0.88,0.24-0.96,0.69c-1.04,5.97-1.52,12.69-0.61,19.42  c0.06,0.45,0.48,0.78,0.93,0.73l5.36-0.51c0.48-0.05,0.83-0.49,0.76-0.96c-0.59-3.73-1.11-10.03,0.03-17.71  C110.72,53.12,110.41,52.68,109.94,52.61"></path>	<path class="st0" d="M105.86,44.4c-0.25,1.16-0.46,2.33-0.62,3.51c-0.06,0.41,0.23,0.8,0.64,0.87l4.87,0.87  c0.44,0.08,0.86-0.23,0.91-0.67c0.11-0.96,0.27-2.1,0.52-3.38c0.08-0.42-0.19-0.84-0.62-0.92l-4.79-0.89  C106.35,43.72,105.95,43.98,105.86,44.4"></path>	<path class="st0" d="M139.52,71.53c-2.76-2.64-10.78-10.73-12.97-17.46c-0.03-0.1-0.08-0.18-0.14-0.26  c3.93-2.94,7.37-8.11,8.6-10.07c0.26-0.42,0.1-0.97-0.34-1.2l-4.74-2.39c-0.41-0.2-0.9-0.04-1.12,0.36  c-2.79,5.06-5.07,8.04-6.04,9.22c0.5-4.13,1.16-8.55,2.03-12.75c0.1-0.46-0.21-0.91-0.67-1l-5.02-0.99  c-0.4-0.07-0.79,0.14-0.94,0.52c-0.88,2.33-2.7,12.37-3.81,30.63c-0.03,0.43,0.32,0.81,0.75,0.86l5.26,0.7  c0.49,0.06,0.92-0.3,0.95-0.79c0.07-1.46,0.24-4.61,0.58-8.63c1.79,4.83,5.81,14.39,10.49,17.16c0.23,0.14,0.51,0.14,0.76,0.04  l6.12-2.56C139.81,72.68,139.96,71.95,139.52,71.53"></path>	<path class="st0" d="M156.83,55.65c-1.3-7.17-6.86-12.17-12.42-11.16c-5.56,1.01-9.02,7.64-7.72,14.81  c1.3,7.17,6.86,12.17,12.42,11.16C154.68,69.45,158.13,62.82,156.83,55.65 M147.7,62.11c-2.66,0.48-5.34-2.06-6-5.68  c-0.66-3.62,0.97-6.95,3.62-7.43c2.66-0.48,5.34,2.06,6,5.68C151.98,58.31,150.36,61.63,147.7,62.11"></path>	<path class="st1" d="M69.94,77.24c0-1.32-1.07-2.4-2.4-2.4c-1.32,0-2.4,1.07-2.4,2.4c0,1.32,1.07,2.4,2.4,2.4  C68.86,79.63,69.94,78.56,69.94,77.24"></path>	<path class="st1" d="M77.96,79.97c0-1.32-1.07-2.4-2.4-2.4c-1.32,0-2.4,1.07-2.4,2.4c0,1.32,1.07,2.4,2.4,2.4  C76.89,82.37,77.96,81.3,77.96,79.97"></path>	<path class="st1" d="M86.7,77.24c0-1.32-1.07-2.4-2.4-2.4c-1.32,0-2.4,1.07-2.4,2.4c0,1.32,1.07,2.4,2.4,2.4  C85.63,79.63,86.7,78.56,86.7,77.24"></path>	<path class="st1" d="M154.1,41.93c-0.26,1.3,0.58,2.56,1.88,2.82c1.3,0.26,2.56-0.58,2.82-1.88c0.26-1.3-0.58-2.56-1.88-2.82  C155.63,39.79,154.36,40.63,154.1,41.93"></path>	<path class="st1" d="M146.78,37.67c-0.26,1.3,0.58,2.56,1.88,2.82c1.3,0.26,2.56-0.58,2.82-1.88c0.26-1.3-0.58-2.56-1.88-2.82  C148.3,35.53,147.04,36.37,146.78,37.67"></path>	<path class="st1" d="M137.67,38.63c-0.26,1.3,0.58,2.56,1.88,2.82c1.3,0.26,2.56-0.58,2.82-1.88c0.26-1.3-0.58-2.56-1.88-2.82  C139.2,36.49,137.93,37.33,137.67,38.63"></path></g></svg>